<?xml version="1.0" encoding="iso-8859-1"?>
<!-- Uploaded to: SVG Repo, www.svgrepo.com, Generator: SVG Repo Mixer Tools -->
<svg height="800px" width="800px" version="1.1" id="Layer_1" xmlns="http://www.w3.org/2000/svg" xmlns:xlink="http://www.w3.org/1999/xlink" 
	 viewBox="0 0 367.8 367.8" xml:space="preserve">
<path style="fill:#F5E6C6;" d="M292.6,228.2l-104,103.6C151.4,369,90.2,369,53,331.8l-2.8-2.8c-37.2-37.2-37.2-98.4,0-135.6l164-164
	c28-28,74-28,102,0l8.4,8.4c28,28,28,74,0,102l-68,68"/>
<g>
	<path style="fill:#C6490F;" d="M121,367.8c-26.8,0-53.2-10-73.6-30.4l-2.8-2.8C25,315,14.2,289,14.2,261s10.8-54,30.4-73.6l164-164
		c31.2-31.2,82-31.2,113.2,0l8.4,8.8c31.2,31.2,31.2,82,0,113.2l-68,68c-3.2,3.2-8,3.2-11.2,0s-3.2-8,0-11.2l68-68
		c24.8-25.2,24.8-65.6,0-90.8l-8.4-8.4C285.4,9.8,245,9.8,219.8,35l-164,164c-16.4,16.4-25.6,38.4-25.6,62s9.2,45.6,25.6,62l2.8,2.8
		c34.4,34.4,90,34.4,124.4,0l104-103.6c3.2-3.2,8-3.2,11.2,0s3.2,8,0,11.2L194.2,337C174.2,357.8,147.4,367.8,121,367.8z"/>
	<path style="fill:#C6490F;" d="M324.6,204.2c-2,0-4-0.8-5.6-2.4c-3.2-3.2-3.2-8-0.4-11.2l8.4-8.8c3.2-3.2,8-3.2,11.2-0.4
		c3.2,3.2,3.2,8,0.4,11.2l-8.4,9.2C329,203.4,326.6,204.2,324.6,204.2z"/>
</g>
<path style="fill:#F5E6C6;" d="M256.6,207.4l-56.4,56.4c-21.6,21.6-57.6,21.6-79.2,0l-2.8-2.8c-21.6-21.6-21.6-57.6,0-79.2
	L225.8,74.2"/>
<path style="fill:#C6490F;" d="M160.6,287.8c-16.4,0-32.8-6-45.2-18.4l-2.8-2.8c-24.4-24.4-24.4-66,0-90.4L220.2,68.6
	c3.2-3.2,8-3.2,11.2,0s3.2,8,0,11.2L123.8,187.4c-18.4,18.4-18.4,49.6,0,68l2.8,2.8c18.4,18.4,49.6,18.4,68,0l56.4-56.4
	c3.2-3.2,8-3.2,11.2,0s3.2,8,0,11.2l-56.4,56.4C193.4,281.8,177,287.8,160.6,287.8z"/>
</svg>